<svg width="36" height="36" viewBox="0 0 36 36" fill="none" xmlns="http://www.w3.org/2000/svg">
<rect width="36" height="36.0006" rx="6" fill="white" fill-opacity="0.01"/>
<path d="M11.1953 12.3598C8.07997 12.3598 5.55469 14.8844 5.55469 17.999C5.55469 21.1135 8.07997 23.6381 11.1953 23.6381H12.3572V12.3598H11.1953Z" fill="#42C9F2"/>
<path d="M24.803 12.3598H23.6397V23.6381H24.803C27.9183 23.6381 30.4436 21.1135 30.4436 17.999C30.4436 14.8844 27.9183 12.3598 24.803 12.3598Z" fill="#6666FF"/>
<path d="M23.6397 11.1948C23.6397 8.08028 21.1144 5.55566 17.9991 5.55566C14.8838 5.55566 12.3586 8.08028 12.3586 11.1948V12.3598H23.6397V11.1948Z" fill="#42C9F2"/>
<path d="M12.5325 26.1553C13.2764 29.1766 16.3288 31.0234 19.3511 30.2801C21.873 29.6598 23.6444 27.3967 23.6397 24.8004V23.6375H15.0517L12.5318 26.156L12.5325 26.1553Z" fill="#6666FF"/>
<path d="M12.3592 12.3598V24.8004C12.3612 25.2579 12.4188 25.7134 12.5318 26.1567L15.0517 23.6375H23.6397V12.3598H12.3592Z" fill="#000066"/>
</svg>
