<svg width="18" height="18" viewBox="0 0 18 18" fill="none" xmlns="http://www.w3.org/2000/svg">
<path d="M6 9H12V8H6V9Z" fill="#24242B"/>
<path d="M12 11H6V10H12V11Z" fill="#24242B"/>
<path d="M6 13H9V12H6V13Z" fill="#24242B"/>
<path fill-rule="evenodd" clip-rule="evenodd" d="M6.0607 1.73223L5.79293 2H5.5C4.11929 2 3 3.11929 3 4.5V14.5C3 15.8807 4.11929 17 5.5 17H12.5C13.8807 17 15 15.8807 15 14.5V4.5C15 3.11929 13.8807 2 12.5 2H12.2071L11.9394 1.73223C11.4705 1.26339 10.8347 1 10.1716 1H7.82846C7.16542 1 6.52954 1.26339 6.0607 1.73223ZM7.82846 2C7.43064 2 7.04911 2.15804 6.76781 2.43934L6.74598 2.46117C6.78326 2.51948 6.81485 2.58226 6.83983 2.64888L7.3465 4H10.6535L11.1602 2.64888C11.1852 2.58224 11.2168 2.51945 11.2541 2.46112L11.2323 2.43934C10.951 2.15804 10.5694 2 10.1716 2H7.82846ZM5.5 3C4.67157 3 4 3.67157 4 4.5V14.5C4 15.3284 4.67157 16 5.5 16H12.5C13.3284 16 14 15.3284 14 14.5V4.5C14 3.67157 13.3284 3 12.5 3H12.0965L11.5898 4.35112C11.4435 4.74143 11.0703 5 10.6535 5H7.3465C6.92966 5 6.55654 4.74143 6.41017 4.35112L5.9035 3H5.5Z" fill="#24242B"/>
</svg>
