<svg width="36" height="36" viewBox="0 0 36 36" fill="none" xmlns="http://www.w3.org/2000/svg">
<g clip-path="url(#clip0_1601_44869)">
<rect width="36" height="36" rx="6" fill="white" fill-opacity="0.01"/>
<path d="M15.7991 6.88418C16.9948 6.19383 18.5238 6.60351 19.2141 7.79925C19.4373 8.18582 19.5455 8.60723 19.5494 9.02387L23.3208 10.0344C23.8754 8.83349 25.0904 8.00014 26.5 8.00014C28.433 8.00014 30 9.56714 30 11.5001C30 13.4331 28.433 15.0001 26.5 15.0001C25.5208 15.0001 24.6354 14.598 24.0002 13.9498L21.2955 16.6545C21.5336 17.097 21.6687 17.6031 21.6687 18.1409C21.6687 19.1432 21.1992 20.0359 20.4681 20.6109C22.6136 21.2457 24.3187 22.906 25.0159 25.0239C25.1015 25.2842 25.0424 25.5695 24.8637 25.7772C23.3315 27.5581 21.0613 28.6858 18.5277 28.6858C15.9936 28.6858 13.723 27.5576 12.1907 25.7761C12.0121 25.5684 11.953 25.283 12.0387 25.0228C12.7362 22.9049 14.4417 21.2449 16.5875 20.6105C15.8566 20.0355 15.3873 19.143 15.3873 18.1409C15.3873 16.4063 16.7934 15.0001 18.528 15.0001C19.3614 15.0001 20.1191 15.3248 20.6813 15.8545L23.4032 13.1326C23.1458 12.6452 23 12.0897 23 11.5001C23 11.3281 23.0124 11.1589 23.0364 10.9935L19.3581 10.0079C19.1549 10.4984 18.7944 10.9283 18.2991 11.2143C17.1033 11.9047 15.5744 11.495 14.884 10.2992C14.1936 9.10351 14.6033 7.57454 15.7991 6.88418Z" fill="#9D9DA0"/>
</g>
<defs>
<clipPath id="clip0_1601_44869">
<rect width="36" height="36" rx="6" fill="white"/>
</clipPath>
</defs>
</svg>
